<?xml version="1.0" encoding="iso-8859-1"?>
<svg version="1.1" id="Capa_1" xmlns="http://www.w3.org/2000/svg" xmlns:xlink="http://www.w3.org/1999/xlink" x="0px" y="0px" viewBox="0 0 512 512" style="enable-background:new 0 0 512 512;" xml:space="preserve">
<g fill="#ff0070">
<g>
  <path d="M256.356,391.187c-24.814,0-45,20.186-45,45c0,24.814,20.186,45,45,45c24.814,0,45-20.186,45-45
    C301.356,411.373,281.171,391.187,256.356,391.187z"/>
</g>
<g>
  <path d="M500.152,108.618c-142.5-103.74-345.538-103.74-488.038,0L0,117.451l35.896,49.369
    c62.595-49.988,146.508-77.844,228.429-75.385c76.254,1.738,153.664,28.925,212.062,75.361L512,117.451L500.152,108.618z"/>
</g>
<g>
  <path d="M429.561,205.679c-100.283-73.008-246.573-73.008-346.856,0l-12.114,8.833l35.957,49.451
    c39.593-33.157,95.125-52.414,148.725-52.674c0.366,0,0.732,0,1.113,0c53.956,0,109.508,19.202,149.388,52.599l35.901-49.376
    L429.561,205.679z"/>
</g>
<g>
  <path d="M358.97,302.74c-58.066-42.276-147.608-42.276-205.674,0l-12.114,8.833l35.887,49.356
    c22.768-22.125,58.822-31.311,86.202-29.478c23.141,1.513,52.719,11.325,71.729,29.749l36.084-49.627L358.97,302.74z"/>
</g>
</g>
</svg>
